<svg width="544" height="91" viewBox="0 0 544 91" fill="none" xmlns="http://www.w3.org/2000/svg">
<path d="M82.0278 68.85C78.9741 68.85 76.0935 68.2833 73.3861 67.15C70.7102 65.9852 68.3491 64.3954 66.3028 62.3806C64.288 60.3657 62.6981 58.0204 61.5333 55.3444C60.4 52.6685 59.8333 49.8037 59.8333 46.75C59.8333 43.6963 60.4 40.8315 61.5333 38.1556C62.6981 35.4796 64.288 33.1343 66.3028 31.1194C68.3491 29.1046 70.7102 27.5306 73.3861 26.3972C76.0935 25.2324 78.9741 24.65 82.0278 24.65C85.05 24.65 87.8833 25.2167 90.5278 26.35C93.1722 27.4519 95.5019 28.9787 97.5167 30.9306L95.9583 37.4472C94.5102 35.1176 92.5583 33.2602 90.1028 31.875C87.6787 30.4583 84.987 29.75 82.0278 29.75C78.9111 29.75 76.0935 30.5213 73.575 32.0639C71.088 33.575 69.1046 35.6213 67.625 38.2028C66.1454 40.7528 65.4056 43.6019 65.4056 46.75C65.4056 49.8667 66.1454 52.7157 67.625 55.2972C69.1046 57.8787 71.088 59.9407 73.575 61.4833C76.0935 62.9944 78.9111 63.75 82.0278 63.75C85.0185 63.75 87.7259 63.0417 90.15 61.625C92.5741 60.2083 94.5102 58.3509 95.9583 56.0528L97.5167 62.5694C95.5019 64.4898 93.1722 66.0167 90.5278 67.15C87.8833 68.2833 85.05 68.85 82.0278 68.85ZM116.972 68.5667C114.233 68.5667 111.731 67.9056 109.464 66.5833C107.197 65.2611 105.387 63.4824 104.033 61.2472C102.711 59.012 102.05 56.5407 102.05 53.8333C102.05 51.0944 102.711 48.6231 104.033 46.4194C105.387 44.1843 107.197 42.4056 109.464 41.0833C111.731 39.7611 114.233 39.1 116.972 39.1C119.743 39.1 122.245 39.7611 124.481 41.0833C126.747 42.4056 128.542 44.1843 129.864 46.4194C131.218 48.6231 131.894 51.0944 131.894 53.8333C131.894 56.5407 131.218 59.012 129.864 61.2472C128.542 63.4824 126.747 65.2611 124.481 66.5833C122.245 67.9056 119.743 68.5667 116.972 68.5667ZM116.972 63.75C118.798 63.75 120.451 63.3093 121.931 62.4278C123.41 61.5148 124.591 60.3185 125.472 58.8389C126.354 57.3278 126.794 55.6593 126.794 53.8333C126.794 52.0074 126.354 50.3546 125.472 48.875C124.591 47.3639 123.41 46.1676 121.931 45.2861C120.451 44.3731 118.798 43.9167 116.972 43.9167C115.146 43.9167 113.494 44.3731 112.014 45.2861C110.534 46.1676 109.354 47.3639 108.472 48.875C107.591 50.3546 107.15 52.0074 107.15 53.8333C107.15 55.6593 107.591 57.3278 108.472 58.8389C109.354 60.3185 110.534 61.5148 112.014 62.4278C113.494 63.3093 115.146 63.75 116.972 63.75ZM138.963 68V39.6667H143.685V43.7278C144.724 42.1852 146.031 41.0361 147.605 40.2806C149.21 39.4935 150.895 39.1 152.657 39.1C154.578 39.1 156.341 39.5565 157.946 40.4694C159.552 41.3509 160.843 42.5944 161.819 44.2C162.92 42.5 164.337 41.225 166.069 40.375C167.832 39.525 169.689 39.1 171.641 39.1C173.782 39.1 175.733 39.6037 177.496 40.6111C179.291 41.6185 180.707 43.0352 181.746 44.8611C182.817 46.6556 183.352 48.7806 183.352 51.2361V68H178.252V51.85C178.252 49.2685 177.512 47.3167 176.032 45.9944C174.584 44.6407 172.9 43.9639 170.98 43.9639C169.783 43.9639 168.619 44.2315 167.485 44.7667C166.383 45.3019 165.47 46.1361 164.746 47.2694C164.054 48.4028 163.707 49.8824 163.707 51.7083V68H158.607V51.85C158.607 50.0556 158.245 48.5759 157.521 47.4111C156.829 46.2463 155.916 45.3806 154.782 44.8139C153.681 44.2157 152.532 43.9167 151.335 43.9167C150.17 43.9167 149.021 44.1843 147.888 44.7194C146.786 45.2546 145.873 46.0889 145.149 47.2222C144.425 48.3556 144.063 49.8509 144.063 51.7083V68H138.963ZM191.822 82.1667V39.6667H196.545V43.3972C197.835 42.1065 199.331 41.0991 201.031 40.375C202.731 39.6509 204.557 39.2889 206.509 39.2889C209.121 39.2889 211.483 39.95 213.592 41.2722C215.733 42.563 217.433 44.3102 218.692 46.5139C219.983 48.7176 220.628 51.1574 220.628 53.8333C220.628 56.5093 219.983 58.9491 218.692 61.1528C217.433 63.3565 215.733 65.1194 213.592 66.4417C211.483 67.7324 209.121 68.3778 206.509 68.3778C204.651 68.3778 202.904 68.0472 201.267 67.3861C199.63 66.725 198.182 65.812 196.922 64.6472V82.1667H191.822ZM205.847 63.75C207.642 63.75 209.263 63.3093 210.711 62.4278C212.191 61.5148 213.356 60.3185 214.206 58.8389C215.087 57.3278 215.528 55.6593 215.528 53.8333C215.528 52.0074 215.087 50.3546 214.206 48.875C213.356 47.3639 212.191 46.1676 210.711 45.2861C209.263 44.3731 207.642 43.9167 205.847 43.9167C204.053 43.9167 202.416 44.3731 200.936 45.2861C199.488 46.1676 198.323 47.3639 197.442 48.875C196.592 50.3546 196.167 52.0074 196.167 53.8333C196.167 55.6593 196.592 57.3278 197.442 58.8389C198.323 60.3185 199.488 61.5148 200.936 62.4278C202.416 63.3093 204.053 63.75 205.847 63.75ZM227.682 68V22.6667H232.782V68H227.682ZM255.332 68.5667C252.373 68.5667 249.712 67.9056 247.351 66.5833C245.022 65.2611 243.18 63.4667 241.826 61.2C240.504 58.9019 239.843 56.3519 239.843 53.55C239.843 50.8741 240.488 48.45 241.779 46.2778C243.07 44.0741 244.801 42.3269 246.974 41.0361C249.177 39.7454 251.601 39.1 254.246 39.1C256.859 39.1 259.251 39.7296 261.424 40.9889C263.596 42.2167 265.327 43.8852 266.618 45.9944C267.909 48.1037 268.554 50.4963 268.554 53.1722V55.25H250.043C249.224 55.25 248.39 55.2185 247.54 55.1556C246.69 55.0926 245.856 54.9981 245.037 54.8722C245.384 57.3907 246.517 59.5 248.437 61.2C250.389 62.9 252.703 63.75 255.379 63.75C257.174 63.75 258.842 63.3407 260.385 62.5222C261.927 61.7037 263.171 60.6176 264.115 59.2639L265.532 65.0722C264.178 66.1741 262.62 67.0398 260.857 67.6694C259.125 68.2676 257.284 68.5667 255.332 68.5667ZM244.896 51.425C246.596 51.1417 248.311 51 250.043 51H259.44C260.133 51 260.81 51.0315 261.471 51.0944C262.163 51.1259 262.856 51.1731 263.549 51.2361C263.108 49.0324 262.006 47.2222 260.243 45.8056C258.48 44.3574 256.481 43.6333 254.246 43.6333C251.948 43.6333 249.933 44.4046 248.201 45.9472C246.47 47.4583 245.368 49.2843 244.896 51.425ZM278.667 68V43.9167H272.245V39.6667H278.809V30.2222H283.625V39.6667H290.661V43.9167H283.767V68H278.667ZM308.722 68.5667C305.763 68.5667 303.103 67.9056 300.742 66.5833C298.412 65.2611 296.571 63.4667 295.217 61.2C293.895 58.9019 293.234 56.3519 293.234 53.55C293.234 50.8741 293.879 48.45 295.17 46.2778C296.46 44.0741 298.192 42.3269 300.364 41.0361C302.568 39.7454 304.992 39.1 307.636 39.1C310.249 39.1 312.642 39.7296 314.814 40.9889C316.986 42.2167 318.718 43.8852 320.009 45.9944C321.299 48.1037 321.945 50.4963 321.945 53.1722V55.25H303.434C302.615 55.25 301.781 55.2185 300.931 55.1556C300.081 55.0926 299.247 54.9981 298.428 54.8722C298.774 57.3907 299.908 59.5 301.828 61.2C303.78 62.9 306.094 63.75 308.77 63.75C310.564 63.75 312.233 63.3407 313.775 62.5222C315.318 61.7037 316.561 60.6176 317.506 59.2639L318.922 65.0722C317.569 66.1741 316.01 67.0398 314.247 67.6694C312.516 68.2676 310.674 68.5667 308.722 68.5667ZM298.286 51.425C299.986 51.1417 301.702 51 303.434 51H312.831C313.523 51 314.2 51.0315 314.861 51.0944C315.554 51.1259 316.247 51.1731 316.939 51.2361C316.498 49.0324 315.397 47.2222 313.634 45.8056C311.871 44.3574 309.872 43.6333 307.636 43.6333C305.338 43.6333 303.323 44.4046 301.592 45.9472C299.86 47.4583 298.759 49.2843 298.286 51.425ZM340.888 68.3778C338.307 68.3778 335.946 67.7324 333.805 66.4417C331.664 65.1194 329.948 63.3565 328.658 61.1528C327.398 58.9491 326.769 56.5093 326.769 53.8333C326.769 51.1574 327.398 48.7176 328.658 46.5139C329.948 44.3102 331.664 42.563 333.805 41.2722C335.946 39.95 338.307 39.2889 340.888 39.2889C342.746 39.2889 344.493 39.6194 346.13 40.2806C347.767 40.9417 349.215 41.8546 350.474 43.0194V22.6667H355.574V68H350.852V64.2694C349.593 65.5287 348.097 66.5361 346.366 67.2917C344.666 68.0157 342.84 68.3778 340.888 68.3778ZM341.549 63.75C343.344 63.75 344.965 63.3093 346.413 62.4278C347.893 61.5148 349.058 60.3185 349.908 58.8389C350.789 57.3278 351.23 55.6593 351.23 53.8333C351.23 52.0074 350.789 50.3546 349.908 48.875C349.058 47.3639 347.893 46.1676 346.413 45.2861C344.965 44.3731 343.344 43.9167 341.549 43.9167C339.755 43.9167 338.118 44.3731 336.638 45.2861C335.19 46.1676 334.025 47.3639 333.144 48.875C332.294 50.3546 331.869 52.0074 331.869 53.8333C331.869 55.6593 332.294 57.3278 333.144 58.8389C334.025 60.3185 335.19 61.5148 336.638 62.4278C338.118 63.3093 339.755 63.75 341.549 63.75Z" fill="#060606"/>
<path fill-rule="evenodd" clip-rule="evenodd" d="M40 48C40 59.0455 31.0455 68 20 68C8.95455 68 0 59.0455 0 48C0 36.9545 8.95455 28 20 28C31.0455 28 40 36.9545 40 48ZM10.9091 49.8182L13.6364 47.0909L17.2727 50.7273L26.3636 41.6364L29.0909 44.3636L17.2727 56.1818L10.9091 49.8182Z" fill="#109738"/>
</svg>
