<svg width="542" height="91" viewBox="0 0 542 91" fill="none" xmlns="http://www.w3.org/2000/svg">
<path d="M40 48C40 59.0457 31.0457 68 20 68C8.95429 68 0 59.0457 0 48C0 36.9543 8.95429 28 20 28C31.0457 28 40 36.9543 40 48Z" fill="url(#paint0_radial_98_2)"/>
<path d="M40 48C40 59.0457 31.0457 68 20 68C8.95429 68 0 59.0457 0 48C0 36.9543 8.95429 28 20 28C31.0457 28 40 36.9543 40 48Z" fill="url(#paint1_linear_98_2)"/>
<path d="M40 48C40 59.0457 31.0457 68 20 68C8.95429 68 0 59.0457 0 48C0 36.9543 8.95429 28 20 28C31.0457 28 40 36.9543 40 48Z" fill="url(#paint2_radial_98_2)"/>
<path d="M40 48C40 59.0457 31.0457 68 20 68C8.95429 68 0 59.0457 0 48C0 36.9543 8.95429 28 20 28C31.0457 28 40 36.9543 40 48Z" fill="url(#paint3_radial_98_2)"/>
<path d="M40 48C40 59.0457 31.0457 68 20 68C8.95429 68 0 59.0457 0 48C0 36.9543 8.95429 28 20 28C31.0457 28 40 36.9543 40 48Z" fill="url(#paint4_radial_98_2)"/>
<path d="M62.5865 68V25.5H67.9698V68H62.5865ZM76.731 30.3167V25.5H104.781V30.3167H93.4477V68H88.0644V30.3167H76.731ZM146.242 68.85C143.188 68.85 140.308 68.2833 137.6 67.15C134.925 65.9852 132.563 64.3954 130.517 62.3806C128.502 60.3657 126.913 58.0204 125.748 55.3444C124.614 52.6685 124.048 49.8037 124.048 46.75C124.048 43.6963 124.614 40.8315 125.748 38.1556C126.913 35.4796 128.502 33.1343 130.517 31.1194C132.563 29.1046 134.925 27.5306 137.6 26.3972C140.308 25.2324 143.188 24.65 146.242 24.65C149.327 24.65 152.208 25.2324 154.884 26.3972C157.56 27.5306 159.905 29.1046 161.92 31.1194C163.966 33.1343 165.556 35.4796 166.689 38.1556C167.854 40.8315 168.437 43.6963 168.437 46.75C168.437 49.8037 167.854 52.6685 166.689 55.3444C165.556 58.0204 163.966 60.3657 161.92 62.3806C159.905 64.3954 157.56 65.9852 154.884 67.15C152.208 68.2833 149.327 68.85 146.242 68.85ZM146.242 63.75C149.359 63.75 152.176 62.9944 154.695 61.4833C157.213 59.9407 159.197 57.8787 160.645 55.2972C162.125 52.7157 162.864 49.8667 162.864 46.75C162.864 43.6019 162.125 40.7528 160.645 38.2028C159.197 35.6213 157.213 33.575 154.695 32.0639C152.176 30.5213 149.359 29.75 146.242 29.75C143.125 29.75 140.308 30.5213 137.789 32.0639C135.302 33.575 133.319 35.6213 131.839 38.2028C130.36 40.7528 129.62 43.6019 129.62 46.75C129.62 49.8667 130.36 52.7157 131.839 55.2972C133.319 57.8787 135.302 59.9407 137.789 61.4833C140.308 62.9944 143.125 63.75 146.242 63.75ZM175.818 82.1667V39.6667H180.54V43.3972C181.831 42.1065 183.326 41.0991 185.026 40.375C186.726 39.6509 188.552 39.2889 190.504 39.2889C193.117 39.2889 195.478 39.95 197.587 41.2722C199.728 42.563 201.428 44.3102 202.687 46.5139C203.978 48.7176 204.624 51.1574 204.624 53.8333C204.624 56.5093 203.978 58.9491 202.687 61.1528C201.428 63.3565 199.728 65.1194 197.587 66.4417C195.478 67.7324 193.117 68.3778 190.504 68.3778C188.647 68.3778 186.899 68.0472 185.262 67.3861C183.625 66.725 182.177 65.812 180.918 64.6472V82.1667H175.818ZM189.843 63.75C191.637 63.75 193.259 63.3093 194.707 62.4278C196.187 61.5148 197.351 60.3185 198.201 58.8389C199.083 57.3278 199.524 55.6593 199.524 53.8333C199.524 52.0074 199.083 50.3546 198.201 48.875C197.351 47.3639 196.187 46.1676 194.707 45.2861C193.259 44.3731 191.637 43.9167 189.843 43.9167C188.049 43.9167 186.412 44.3731 184.932 45.2861C183.484 46.1676 182.319 47.3639 181.437 48.875C180.587 50.3546 180.162 52.0074 180.162 53.8333C180.162 55.6593 180.587 57.3278 181.437 58.8389C182.319 60.3185 183.484 61.5148 184.932 62.4278C186.412 63.3093 188.049 63.75 189.843 63.75ZM225.183 68.5667C222.224 68.5667 219.563 67.9056 217.202 66.5833C214.873 65.2611 213.031 63.4667 211.677 61.2C210.355 58.9019 209.694 56.3519 209.694 53.55C209.694 50.8741 210.339 48.45 211.63 46.2778C212.921 44.0741 214.652 42.3269 216.825 41.0361C219.028 39.7454 221.452 39.1 224.097 39.1C226.71 39.1 229.102 39.7296 231.275 40.9889C233.447 42.2167 235.178 43.8852 236.469 45.9944C237.76 48.1037 238.405 50.4963 238.405 53.1722V55.25H219.894C219.076 55.25 218.241 55.2185 217.391 55.1556C216.541 55.0926 215.707 54.9981 214.888 54.8722C215.235 57.3907 216.368 59.5 218.288 61.2C220.24 62.9 222.554 63.75 225.23 63.75C227.025 63.75 228.693 63.3407 230.236 62.5222C231.778 61.7037 233.022 60.6176 233.966 59.2639L235.383 65.0722C234.029 66.1741 232.471 67.0398 230.708 67.6694C228.976 68.2676 227.135 68.5667 225.183 68.5667ZM214.747 51.425C216.447 51.1417 218.163 51 219.894 51H229.291C229.984 51 230.661 51.0315 231.322 51.0944C232.014 51.1259 232.707 51.1731 233.4 51.2361C232.959 49.0324 231.857 47.2222 230.094 45.8056C228.331 44.3574 226.332 43.6333 224.097 43.6333C221.799 43.6333 219.784 44.4046 218.052 45.9472C216.321 47.4583 215.219 49.2843 214.747 51.425ZM245.213 68V39.6667H249.935V44.8611C250.942 43.1926 252.28 41.8704 253.949 40.8944C255.617 39.887 257.6 39.3833 259.899 39.3833L261.174 44.4833C260.575 44.2944 259.883 44.2 259.096 44.2C256.451 44.2 254.326 45.05 252.721 46.75C251.115 48.4185 250.313 50.8111 250.313 53.9278V68H245.213ZM277.669 68.3778C275.087 68.3778 272.726 67.7324 270.586 66.4417C268.445 65.1194 266.729 63.3565 265.438 61.1528C264.179 58.9491 263.55 56.5093 263.55 53.8333C263.55 51.1574 264.179 48.7176 265.438 46.5139C266.729 44.3102 268.445 42.563 270.586 41.2722C272.726 39.95 275.087 39.2889 277.669 39.2889C279.621 39.2889 281.447 39.6509 283.147 40.375C284.878 41.0991 286.374 42.1065 287.633 43.3972V39.6667H292.355V68H287.633V64.2694C286.374 65.5287 284.878 66.5361 283.147 67.2917C281.447 68.0157 279.621 68.3778 277.669 68.3778ZM278.33 63.75C280.125 63.75 281.746 63.3093 283.194 62.4278C284.674 61.5148 285.838 60.3185 286.688 58.8389C287.57 57.3278 288.011 55.6593 288.011 53.8333C288.011 52.0074 287.57 50.3546 286.688 48.875C285.838 47.3639 284.674 46.1676 283.194 45.2861C281.746 44.3731 280.125 43.9167 278.33 43.9167C276.536 43.9167 274.899 44.3731 273.419 45.2861C271.971 46.1676 270.806 47.3639 269.925 48.875C269.075 50.3546 268.65 52.0074 268.65 53.8333C268.65 55.6593 269.075 57.3278 269.925 58.8389C270.806 60.3185 271.971 61.5148 273.419 62.4278C274.899 63.3093 276.536 63.75 278.33 63.75ZM304.698 68V43.9167H298.276V39.6667H304.839V30.2222H309.656V39.6667H316.692V43.9167H309.798V68H304.698ZM322.642 68V39.6667H327.742V68H322.642ZM325.192 34.5667C324.248 34.5667 323.445 34.2361 322.784 33.575C322.123 32.9139 321.792 32.1111 321.792 31.1667C321.792 30.1907 322.123 29.388 322.784 28.7583C323.445 28.0972 324.248 27.7667 325.192 27.7667C326.168 27.7667 326.971 28.0972 327.601 28.7583C328.262 29.388 328.592 30.1907 328.592 31.1667C328.592 32.1111 328.262 32.9139 327.601 33.575C326.971 34.2361 326.168 34.5667 325.192 34.5667ZM349.726 68.5667C346.987 68.5667 344.484 67.9056 342.217 66.5833C339.951 65.2611 338.14 63.4824 336.787 61.2472C335.465 59.012 334.803 56.5407 334.803 53.8333C334.803 51.0944 335.465 48.6231 336.787 46.4194C338.14 44.1843 339.951 42.4056 342.217 41.0833C344.484 39.7611 346.987 39.1 349.726 39.1C352.496 39.1 354.999 39.7611 357.234 41.0833C359.501 42.4056 361.295 44.1843 362.617 46.4194C363.971 48.6231 364.648 51.0944 364.648 53.8333C364.648 56.5407 363.971 59.012 362.617 61.2472C361.295 63.4824 359.501 65.2611 357.234 66.5833C354.999 67.9056 352.496 68.5667 349.726 68.5667ZM349.726 63.75C351.552 63.75 353.204 63.3093 354.684 62.4278C356.164 61.5148 357.344 60.3185 358.226 58.8389C359.107 57.3278 359.548 55.6593 359.548 53.8333C359.548 52.0074 359.107 50.3546 358.226 48.875C357.344 47.3639 356.164 46.1676 354.684 45.2861C353.204 44.3731 351.552 43.9167 349.726 43.9167C347.9 43.9167 346.247 44.3731 344.767 45.2861C343.288 46.1676 342.107 47.3639 341.226 48.875C340.344 50.3546 339.903 52.0074 339.903 53.8333C339.903 55.6593 340.344 57.3278 341.226 58.8389C342.107 60.3185 343.288 61.5148 344.767 62.4278C346.247 63.3093 347.9 63.75 349.726 63.75ZM371.716 68V39.6667H376.439V44.2472C377.478 42.5787 378.816 41.3037 380.453 40.4222C382.121 39.5407 383.916 39.1 385.836 39.1C387.851 39.1 389.708 39.6037 391.408 40.6111C393.14 41.587 394.541 43.0194 395.611 44.9083C396.681 46.7657 397.216 49.0324 397.216 51.7083V68H392.116V52.4167C392.116 50.1815 391.44 48.2139 390.086 46.5139C388.764 44.7824 386.891 43.9167 384.466 43.9167C382.483 43.9167 380.704 44.6407 379.13 46.0889C377.588 47.5056 376.816 49.5676 376.816 52.275V68H371.716Z" fill="#060606"/>
<defs>
<radialGradient id="paint0_radial_98_2" cx="0" cy="0" r="1" gradientUnits="userSpaceOnUse" gradientTransform="translate(31.6856 37.6439) rotate(130.168) scale(39.7266)">
<stop offset="0.232" stop-color="#F24756"/>
<stop offset="1" stop-color="#B22945"/>
</radialGradient>
<linearGradient id="paint1_linear_98_2" x1="20" y1="28" x2="20" y2="37.2857" gradientUnits="userSpaceOnUse">
<stop stop-color="#DD4577"/>
<stop offset="1" stop-color="#EF4B5E" stop-opacity="0"/>
</linearGradient>
<radialGradient id="paint2_radial_98_2" cx="0" cy="0" r="1" gradientUnits="userSpaceOnUse" gradientTransform="translate(32.3981 40.4993) rotate(136.38) scale(20.9667 22.5943)">
<stop offset="0.179" stop-color="#FF6180"/>
<stop offset="1" stop-color="#E5364A" stop-opacity="0"/>
</radialGradient>
<radialGradient id="paint3_radial_98_2" cx="0" cy="0" r="1" gradientUnits="userSpaceOnUse" gradientTransform="translate(26.4171 48) rotate(180) scale(27.5 28.5714)">
<stop offset="0.62" stop-color="#B73E4B" stop-opacity="0"/>
<stop offset="0.951" stop-color="#D48387"/>
</radialGradient>
<radialGradient id="paint4_radial_98_2" cx="0" cy="0" r="1" gradientUnits="userSpaceOnUse" gradientTransform="translate(20 38) rotate(90) scale(30 33.3154)">
<stop offset="0.863" stop-color="#B83C5A" stop-opacity="0"/>
<stop offset="1" stop-color="#AC4064"/>
</radialGradient>
</defs>
</svg>
